<svg width="24" height="25" viewBox="0 0 24 25" fill="none" xmlns="http://www.w3.org/2000/svg">
    <g clip-path="url(#clip0_4770_4953)">
        <path d="M12 14.5352C13.6569 14.5352 15 13.192 15 11.5352C15 9.8783 13.6569 8.53516 12 8.53516C10.3431 8.53516 9 9.8783 9 11.5352C9 13.192 10.3431 14.5352 12 14.5352Z"
              stroke="#383838" stroke-width="1.5" stroke-linecap="round" stroke-linejoin="round"/>
        <path d="M17.657 17.1921L13.414 21.4351C13.039 21.8097 12.5306 22.0202 12.0005 22.0202C11.4704 22.0202 10.962 21.8097 10.587 21.4351L6.343 17.1921C5.22422 16.0733 4.46234 14.6478 4.15369 13.096C3.84504 11.5441 4.00349 9.93562 4.609 8.47384C5.21452 7.01205 6.2399 5.76265 7.55548 4.88361C8.87107 4.00458 10.4178 3.5354 12 3.5354C13.5822 3.5354 15.1289 4.00458 16.4445 4.88361C17.7601 5.76265 18.7855 7.01205 19.391 8.47384C19.9965 9.93562 20.155 11.5441 19.8463 13.096C19.5377 14.6478 18.7758 16.0733 17.657 17.1921V17.1921Z"
              stroke="#383838" stroke-width="1.5" stroke-linecap="round" stroke-linejoin="round"/>
    </g>
    <defs>
        <clipPath id="clip0_4770_4953">
            <rect width="24" height="24" fill="white" transform="translate(0 0.535156)"/>
        </clipPath>
    </defs>
</svg>
