<svg width="24" height="25" viewBox="0 0 24 25" fill="none" xmlns="http://www.w3.org/2000/svg">
    <g clip-path="url(#clip0_4770_4940)">
        <path d="M5 4.53516H9L11 9.53516L8.5 11.0352C9.57096 13.2067 11.3285 14.9642 13.5 16.0352L15 13.5352L20 15.5352V19.5352C20 20.0656 19.7893 20.5743 19.4142 20.9494C19.0391 21.3244 18.5304 21.5352 18 21.5352C14.0993 21.2981 10.4202 19.6417 7.65683 16.8783C4.8935 14.115 3.23705 10.4359 3 6.53516C3 6.00472 3.21071 5.49602 3.58579 5.12094C3.96086 4.74587 4.46957 4.53516 5 4.53516"
              stroke="#383838" stroke-width="1.5" stroke-linecap="round" stroke-linejoin="round"/>
    </g>
    <defs>
        <clipPath id="clip0_4770_4940">
            <rect width="24" height="24" fill="white" transform="translate(0 0.535156)"/>
        </clipPath>
    </defs>
</svg>
