<svg width="227" height="107" viewBox="0 0 227 107" fill="none" xmlns="http://www.w3.org/2000/svg">
    <path d="M94.253 6.55754C90.2299 4.51759 86.0838 3.11093 81.6692 2.23682C80.6825 2.04225 80.3099 3.55886 81.2185 3.91589C83.0044 4.62423 84.8131 5.27887 86.6262 5.89251C77.4376 6.68907 66.1235 9.96559 60.23 17.0346C57.5599 16.4303 54.7843 16.2246 52.2076 16.2131C35.9329 16.1677 23.9554 26.9394 14.5445 39.0874C14.3147 39.3923 14.7764 39.7314 15.0189 39.4449C21.2609 32.1249 27.875 24.7224 36.8192 20.6782C43.2096 17.7908 51.9854 16.2847 59.4258 18.0666C58.2497 19.686 57.3518 21.4885 56.8056 23.494C55.5934 27.9461 56.7767 33.1319 61.0253 35.4835C64.507 37.4076 69.0777 36.8056 71.2268 33.2721C73.7124 29.1865 72.0047 23.933 68.6102 20.9767C66.8261 19.4198 64.6662 18.35 62.3726 17.6221C62.5044 17.4824 62.6363 17.3427 62.7794 17.2115C70.2371 10.1347 81.4726 7.2328 91.506 7.41822C91.6078 7.42411 91.6956 7.4017 91.7819 7.36937C91.9769 7.46315 92.1704 7.54701 92.3654 7.64079C90.8703 9.00211 89.2882 10.0323 87.387 10.8751C86.3409 11.3352 87.0457 12.973 88.0918 12.513C90.6768 11.362 92.65 9.95371 94.6162 7.92028C95.0485 7.47579 94.6993 6.78766 94.253 6.55754ZM66.6748 21.289C69.3066 23.2014 71.1258 26.0863 70.8283 29.4302C70.3726 34.5232 64.8684 36.4581 60.9494 33.4341C55.9984 29.6059 58.0573 22.8435 61.4666 18.6482C63.3333 19.2846 65.1006 20.147 66.6748 21.289Z" fill="#383838"/>
    <path d="M5.562 82.572C8.334 82.572 10.566 80.736 10.566 77.838C10.566 75.894 9.432 74.418 7.812 73.968V73.914C8.712 73.518 9.324 72.69 9.324 71.682C9.324 69.846 7.614 68.73 5.364 68.73C3.24 68.73 1.476 69.81 1.476 71.61C1.476 71.916 1.53 72.222 1.62 72.474L4.41 72.096C4.374 72.006 4.356 71.862 4.356 71.718C4.356 71.232 4.716 70.818 5.364 70.818C6.048 70.818 6.444 71.196 6.444 71.772C6.444 72.528 5.994 72.978 4.59 73.266C2.322 73.716 0.558 75.228 0.558 77.784C0.558 80.718 2.772 82.572 5.562 82.572ZM5.562 80.052C4.248 80.052 3.402 79.044 3.402 77.784C3.402 76.578 4.248 75.552 5.562 75.552C6.858 75.552 7.74 76.578 7.74 77.784C7.74 79.044 6.876 80.052 5.562 80.052ZM16.365 78.252C19.245 78.252 20.937 76.38 20.937 74.31C20.937 71.142 17.931 70.71 17.895 68.982H14.907C14.907 72.33 18.039 72.294 18.039 74.292C18.039 75.174 17.391 75.876 16.347 75.876C15.213 75.876 14.655 75.084 14.655 74.22C14.655 73.914 14.691 73.662 14.799 73.374L12.117 72.798C11.901 73.248 11.757 73.77 11.757 74.436C11.757 76.47 13.431 78.252 16.365 78.252ZM26.4623 77.532C25.7783 76.344 25.2923 75.138 25.2923 73.662C25.2923 72.348 25.8863 71.25 27.2003 71.25C28.5503 71.25 29.1443 72.348 29.1443 73.662C29.1443 75.138 28.6583 76.344 27.9563 77.532L30.5483 78.288C31.3583 77.226 32.0423 75.624 32.0423 73.644C32.0423 70.44 29.7743 68.73 27.2003 68.73C24.6443 68.73 22.3943 70.44 22.3943 73.644C22.3943 75.624 23.0783 77.226 23.8883 78.288L26.4623 77.532ZM39.6776 82.464C42.7016 82.464 44.8436 80.736 44.8436 78.378C44.8436 76.452 43.9076 75.426 42.7556 75.066V75.012C43.8356 74.724 44.5196 73.914 44.5196 72.762C44.5196 70.53 42.6296 70.458 42.5396 68.982H39.5696C39.4796 71.61 41.5496 71.466 41.5496 72.924C41.5496 73.626 41.1356 74.058 40.2536 74.058H38.8676V76.29H39.9476C40.9556 76.29 41.8736 76.848 41.8736 78.162C41.8736 79.332 41.0276 80.034 39.6956 80.034C38.0216 80.034 36.4016 78.792 36.4016 75.174C36.4016 72.672 37.2476 70.692 38.0756 69.414L35.5376 68.694C34.6196 69.81 33.5036 72.06 33.5036 75.192C33.5036 79.53 35.8256 82.464 39.6776 82.464ZM50.8005 78.252C53.6805 78.252 55.3725 76.38 55.3725 74.31C55.3725 71.142 52.3665 70.71 52.3305 68.982H49.3425C49.3425 72.33 52.4745 72.294 52.4745 74.292C52.4745 75.174 51.8265 75.876 50.7825 75.876C49.6485 75.876 49.0905 75.084 49.0905 74.22C49.0905 73.914 49.1265 73.662 49.2345 73.374L46.5525 72.798C46.3365 73.248 46.1925 73.77 46.1925 74.436C46.1925 76.47 47.8665 78.252 50.8005 78.252ZM62.1398 78.252C65.4518 78.252 67.1438 75.948 67.1438 73.518C67.1438 70.836 65.3438 68.892 62.7878 68.892C61.7078 68.892 60.6638 69.378 60.1058 70.098H60.0518V68.352C60.0518 67.218 60.6278 66.696 61.6538 66.696H66.2258V64.392H61.2938C58.6298 64.392 57.0998 65.724 57.0998 68.334V72.978C57.0998 76.344 59.1878 78.252 62.1398 78.252ZM62.1038 75.804C60.8078 75.804 59.9078 74.796 59.9078 73.554C59.9078 72.276 60.8078 71.286 62.1038 71.286C63.5078 71.286 64.2998 72.312 64.2998 73.572C64.2998 74.778 63.5078 75.804 62.1038 75.804ZM72.6927 77.532C72.0087 76.344 71.5227 75.138 71.5227 73.662C71.5227 72.348 72.1167 71.25 73.4307 71.25C74.7807 71.25 75.3747 72.348 75.3747 73.662C75.3747 75.138 74.8887 76.344 74.1867 77.532L76.7787 78.288C77.5887 77.226 78.2727 75.624 78.2727 73.644C78.2727 70.44 76.0047 68.73 73.4307 68.73C70.8747 68.73 68.6247 70.44 68.6247 73.644C68.6247 75.624 69.3087 77.226 70.1187 78.288L72.6927 77.532ZM89.0761 78.252C91.9741 78.252 94.0441 76.344 94.0441 73.986C94.0441 72.168 93.0541 71.088 91.8841 70.71V70.656C92.9281 70.368 93.7021 69.594 93.7021 68.478C93.7021 65.886 90.4441 65.958 90.4081 64.392H87.4201C87.3301 67.704 90.7321 67.308 90.7321 68.748C90.7321 69.396 90.0661 69.684 89.2921 69.684H88.4641V71.934H89.1661C90.0481 71.934 91.0741 72.474 91.0741 73.824C91.0741 74.904 90.3721 75.804 89.0221 75.804C87.6181 75.804 86.9161 74.904 86.9161 73.734C86.9161 73.392 86.9701 73.104 87.0781 72.798L84.4501 72.222C84.2341 72.69 84.0721 73.248 84.0721 73.95C84.0721 76.02 85.7281 78.252 89.0761 78.252ZM99.5697 77.532C98.8857 76.344 98.3997 75.138 98.3997 73.662C98.3997 72.348 98.9937 71.25 100.308 71.25C101.658 71.25 102.252 72.348 102.252 73.662C102.252 75.138 101.766 76.344 101.064 77.532L103.656 78.288C104.466 77.226 105.15 75.624 105.15 73.644C105.15 70.44 102.882 68.73 100.308 68.73C97.7517 68.73 95.5017 70.44 95.5017 73.644C95.5017 75.624 96.1857 77.226 96.9957 78.288L99.5697 77.532ZM110.877 77.532C110.067 76.218 109.581 74.814 109.581 73.428C109.581 72.024 110.157 71.412 110.967 71.412C111.759 71.412 112.209 72.078 112.209 73.212V75.768H115.089V73.212C115.089 71.97 115.593 71.412 116.349 71.412C117.177 71.412 117.735 72.024 117.735 73.428C117.735 74.796 117.267 76.218 116.439 77.532L119.049 78.27C120.021 77.046 120.705 75.354 120.705 73.338C120.705 70.188 118.815 68.946 116.799 68.946C115.107 68.946 114.135 69.81 113.685 70.98H113.631C113.253 69.846 112.335 68.946 111.039 68.946C110.211 68.946 109.473 69.27 109.023 69.954H108.951C109.293 68.82 110.247 68.136 111.633 67.758L113.433 67.47C115.143 67.092 116.781 66.372 117.177 64.626L114.639 64.014C114.297 64.68 113.757 64.878 112.479 65.22L111.579 65.454C107.997 66.498 106.611 68.55 106.611 72.276C106.611 74.796 107.097 76.668 108.267 78.27L110.877 77.532ZM127.082 82.572C129.908 82.572 132.032 80.826 132.032 78.468C132.032 76.596 131.096 75.57 129.98 75.21V75.156C131.024 74.706 131.78 73.86 131.78 72.51C131.78 70.404 129.836 68.73 127.172 68.73C124.4 68.73 122.492 70.332 122.492 72.51C122.492 72.978 122.582 73.428 122.69 73.77L125.498 73.32C125.462 73.176 125.426 72.978 125.426 72.78C125.426 71.79 126.11 71.178 127.154 71.178C128.108 71.178 128.828 71.79 128.828 72.78C128.828 73.806 128.054 74.22 127.208 74.22H126.524V76.434H127.208C128.216 76.434 129.062 76.992 129.062 78.27C129.062 79.386 128.27 80.124 127.046 80.124C125.732 80.124 124.994 79.278 124.994 78.198C124.994 77.91 125.03 77.658 125.12 77.388L122.492 76.794C122.276 77.262 122.15 77.748 122.15 78.432C122.15 80.502 123.842 82.572 127.082 82.572ZM138.312 82.572C141.12 82.572 143.19 80.718 143.19 77.658V73.338C143.19 70.566 141.264 68.73 138.51 68.73C135.612 68.73 133.794 70.422 133.794 72.708C133.794 73.248 133.92 73.716 134.064 74.13L136.854 73.68C136.8 73.482 136.746 73.194 136.746 72.906C136.746 71.754 137.502 71.196 138.474 71.196C139.518 71.196 140.22 71.934 140.22 73.302V77.856C140.22 79.188 139.518 80.106 138.33 80.106C137.034 80.106 136.314 79.206 136.314 78.126C136.314 77.73 136.368 77.352 136.512 77.01L133.902 76.416C133.632 76.956 133.47 77.55 133.47 78.324C133.47 80.466 135.054 82.572 138.312 82.572ZM159.205 81.438C158.287 79.116 156.073 78.594 153.499 78.198C150.673 77.784 147.919 76.794 147.919 73.5C147.919 71.952 148.441 71.214 149.179 71.214C149.827 71.214 150.349 71.682 150.349 72.906V75.552H153.211V72.852C153.211 71.79 153.643 71.214 154.399 71.214C155.047 71.214 155.569 71.682 155.569 72.852V75.552H158.431V72.96C158.431 71.826 158.845 71.214 159.601 71.214C160.447 71.214 160.861 71.988 160.861 73.212C160.861 74.364 160.591 75.426 160.087 76.47L162.769 77.424C163.435 76.254 163.849 74.778 163.849 73.14C163.849 70.152 162.247 68.73 160.105 68.73C158.611 68.73 157.567 69.54 157.117 70.692H157.063C156.757 69.576 155.803 68.73 154.399 68.73C152.995 68.73 152.077 69.594 151.717 70.692H151.663C151.195 69.504 150.151 68.73 148.729 68.73C146.893 68.73 144.949 69.954 144.949 73.302C144.949 76.452 146.983 78.126 148.945 78.72V78.792H147.271V80.736H152.203C154.201 80.736 156.001 81.168 156.775 82.59L159.205 81.438ZM169.39 77.532C168.706 76.344 168.22 75.138 168.22 73.662C168.22 72.348 168.814 71.25 170.128 71.25C171.478 71.25 172.072 72.348 172.072 73.662C172.072 75.138 171.586 76.344 170.884 77.532L173.476 78.288C174.286 77.226 174.97 75.624 174.97 73.644C174.97 70.44 172.702 68.73 170.128 68.73C167.572 68.73 165.322 70.44 165.322 73.644C165.322 75.624 166.006 77.226 166.816 78.288L169.39 77.532Z" fill="#DB0060"/>
    <path opacity="0.8" d="M4.046 104.528C5.992 104.528 7.364 103.366 7.364 101.644C7.364 100.132 6.538 99.278 5.46 99.012V98.984C6.398 98.76 7.126 98.074 7.126 96.884C7.126 95.414 5.908 94.252 4.088 94.252C2.212 94.252 1.008 95.47 1.008 96.884C1.008 97.136 1.05 97.374 1.12 97.57L2.044 97.388C2.002 97.248 1.974 97.066 1.974 96.898C1.974 95.806 2.842 95.05 4.088 95.05C5.39 95.05 6.174 95.862 6.174 96.912C6.174 98.158 5.166 98.606 4.228 98.606H3.584V99.418H4.228C5.278 99.418 6.398 100.02 6.398 101.574C6.398 102.904 5.432 103.73 4.06 103.73C2.632 103.73 1.722 102.75 1.722 101.602C1.722 101.294 1.764 101.014 1.876 100.734L1.008 100.426C0.84 100.776 0.756 101.14 0.756 101.616C0.756 103.156 1.89 104.528 4.046 104.528ZM10.9494 100.804C10.3754 100.02 9.82942 99.096 9.82942 97.71C9.82942 96.296 10.5294 95.064 12.0554 95.064C13.5814 95.064 14.2814 96.296 14.2814 97.71C14.2814 99.096 13.7494 100.02 13.1614 100.804L13.9734 101.154C14.6174 100.398 15.2474 99.25 15.2474 97.696C15.2474 95.484 13.9174 94.252 12.0554 94.252C10.2074 94.252 8.86342 95.484 8.86342 97.696C8.86342 99.25 9.49342 100.398 10.1374 101.154L10.9494 100.804ZM24.8578 104.15C24.3538 102.834 23.1218 102.274 21.1198 101.896C19.2858 101.532 17.7458 100.062 17.7458 97.584C17.7458 95.946 18.3618 95.064 19.4398 95.064C20.2098 95.064 21.0778 95.624 21.0778 97.052V97.528C21.0778 99.474 22.3238 100.79 24.1718 100.79C26.0478 100.79 27.2658 99.446 27.2658 97.528C27.2658 95.596 26.0198 94.252 24.2418 94.252C22.8978 94.252 21.9458 94.98 21.5958 96.002H21.5678C21.3298 95.036 20.5598 94.252 19.3278 94.252C17.8298 94.252 16.7658 95.344 16.7658 97.514C16.7658 100.076 18.1658 101.588 19.7618 102.036V102.064H18.2498V102.778H20.2798C21.7638 102.778 23.5138 103.114 24.0458 104.5L24.8578 104.15ZM24.1718 99.992C22.8278 99.992 22.0158 98.928 22.0158 97.528C22.0158 96.114 22.8278 95.036 24.1718 95.036C25.5298 95.036 26.3278 96.114 26.3278 97.528C26.3278 98.928 25.5298 99.992 24.1718 99.992ZM32.0313 104.528C33.9493 104.528 35.2653 103.268 35.2653 101.182V97.556C35.2653 95.456 33.9493 94.252 32.1293 94.252C30.1833 94.252 29.0213 95.512 29.0213 96.94C29.0213 97.248 29.1053 97.598 29.1753 97.78L30.0993 97.612C30.0573 97.472 29.9873 97.192 29.9873 96.968C29.9873 95.75 30.9393 95.05 32.1293 95.05C33.4593 95.05 34.3133 96.03 34.3133 97.598V101.126C34.3133 102.75 33.4173 103.73 32.0593 103.73C30.6453 103.73 29.7493 102.708 29.7493 101.546C29.7493 101.112 29.8333 100.734 30.0013 100.384L29.1333 100.076C28.9093 100.482 28.7833 100.958 28.7833 101.56C28.7833 103.086 29.9033 104.528 32.0313 104.528ZM39.1545 100.804C38.5805 99.978 38.0485 98.942 38.0485 97.416C38.0485 95.932 38.7345 95.064 39.8125 95.064C40.7505 95.064 41.3945 95.736 41.3945 97.234V99.236H42.3605V97.234C42.3605 95.554 43.1585 95.064 43.9145 95.064C44.9365 95.064 45.7065 95.736 45.7065 97.416C45.7065 98.928 45.1885 99.964 44.5865 100.804L45.3985 101.154C46.0285 100.398 46.6865 99.11 46.6865 97.43C46.6865 95.26 45.4825 94.252 43.9985 94.252C42.8645 94.252 42.1225 95.008 41.8985 95.848H41.8705C41.6605 95.134 41.0165 94.252 39.7285 94.252C38.2445 94.252 37.0685 95.274 37.0685 97.43C37.0685 99.124 37.7265 100.398 38.3565 101.154L39.1545 100.804ZM55.1977 101.182C57.2557 101.182 58.5857 99.712 58.5857 97.542V93.608C58.5857 91.55 57.2417 90.234 55.2817 90.234C53.2377 90.234 52.0197 91.564 52.0197 92.992C52.0197 93.23 52.0477 93.426 52.1037 93.58L53.0277 93.398C52.9997 93.286 52.9857 93.146 52.9857 93.02C52.9857 91.816 53.9517 91.032 55.2817 91.032C56.7657 91.032 57.6337 92.082 57.6337 93.622V95.708H57.5917C57.1157 94.798 56.0797 94.28 55.0437 94.28C53.0977 94.28 51.7537 95.764 51.7537 97.738C51.7537 99.572 53.0837 101.182 55.1977 101.182ZM55.1977 100.384C53.6437 100.384 52.7477 99.166 52.7477 97.738C52.7477 96.296 53.6437 95.092 55.1977 95.092C56.6677 95.092 57.6897 96.268 57.6897 97.738C57.6897 99.18 56.6957 100.384 55.1977 100.384ZM63.6407 104.528C65.5587 104.528 66.8747 103.268 66.8747 101.182V97.556C66.8747 95.456 65.5587 94.252 63.7387 94.252C61.7927 94.252 60.6307 95.512 60.6307 96.94C60.6307 97.248 60.7147 97.598 60.7847 97.78L61.7087 97.612C61.6667 97.472 61.5967 97.192 61.5967 96.968C61.5967 95.75 62.5487 95.05 63.7387 95.05C65.0687 95.05 65.9227 96.03 65.9227 97.598V101.126C65.9227 102.75 65.0267 103.73 63.6687 103.73C62.2547 103.73 61.3587 102.708 61.3587 101.546C61.3587 101.112 61.4427 100.734 61.6107 100.384L60.7427 100.076C60.5187 100.482 60.3927 100.958 60.3927 101.56C60.3927 103.086 61.5127 104.528 63.6407 104.528ZM73.0039 104.528C75.6079 104.528 77.4699 102.484 77.4699 99.46C77.4699 96.492 75.7479 94.56 73.4099 94.35C73.4519 94.126 73.4799 93.678 73.4799 93.426V92.6H72.5279V93.412C72.5279 93.678 72.5559 94.126 72.5979 94.35C70.2599 94.56 68.5659 96.492 68.5659 99.46C68.5659 102.484 70.4139 104.528 73.0039 104.528ZM73.0039 103.744C70.8339 103.744 69.5319 101.868 69.5319 99.46C69.5319 97.052 70.7499 95.372 72.5979 95.134C72.5559 95.428 72.5419 95.834 72.5419 96.156V99.544H73.4799V96.156C73.4799 95.834 73.4519 95.428 73.4099 95.134C75.2719 95.372 76.4899 97.052 76.4899 99.46C76.4899 101.868 75.1879 103.744 73.0039 103.744ZM80.9358 100.804C80.3618 100.02 79.8158 99.096 79.8158 97.71C79.8158 96.296 80.5158 95.064 82.0418 95.064C83.5678 95.064 84.2678 96.296 84.2678 97.71C84.2678 99.096 83.7358 100.02 83.1478 100.804L83.9598 101.154C84.6038 100.398 85.2338 99.25 85.2338 97.696C85.2338 95.484 83.9038 94.252 82.0418 94.252C80.1938 94.252 78.8498 95.484 78.8498 97.696C78.8498 99.25 79.4798 100.398 80.1238 101.154L80.9358 100.804ZM92.3381 100.804C91.7641 100.02 91.2181 99.096 91.2181 97.71C91.2181 96.296 91.9181 95.064 93.4441 95.064C94.9701 95.064 95.6701 96.296 95.6701 97.71C95.6701 99.096 95.1381 100.02 94.5501 100.804L95.3621 101.154C96.0061 100.398 96.6361 99.25 96.6361 97.696C96.6361 95.484 95.3061 94.252 93.4441 94.252C91.5961 94.252 90.2521 95.484 90.2521 97.696C90.2521 99.25 90.8821 100.398 91.5261 101.154L92.3381 100.804ZM101.85 101.182C104.02 101.182 105.266 99.502 105.266 97.738C105.266 95.736 103.922 94.252 102.004 94.252C100.94 94.252 99.9324 94.77 99.4424 95.694H99.4004V93.132C99.4004 91.844 100.002 91.228 101.276 91.228H104.51V90.416H101.206C99.5404 90.416 98.4484 91.172 98.4484 93.118V97.542C98.4484 99.698 99.7784 101.182 101.85 101.182ZM101.822 100.384C100.324 100.384 99.3444 99.18 99.3444 97.724C99.3444 96.226 100.366 95.036 101.822 95.036C103.376 95.036 104.286 96.268 104.286 97.738C104.286 99.166 103.376 100.384 101.822 100.384ZM112.815 104.528C114.803 104.528 116.511 103.492 116.511 101.602C116.511 100.454 116.063 99.67 115.153 99.362V99.334C116.119 99.068 116.805 98.242 116.805 96.94C116.805 95.372 115.839 94.252 114.327 94.252C113.123 94.252 112.367 94.994 112.129 95.876H112.101C111.779 94.938 110.883 94.252 109.651 94.252C107.971 94.252 106.795 95.526 106.795 97.332C106.795 99.124 107.957 100.412 109.707 100.412C111.429 100.412 112.605 99.152 112.605 97.332C112.605 97.178 112.591 97.024 112.591 96.87C112.591 95.582 113.445 95.05 114.201 95.05C115.279 95.05 115.825 95.848 115.825 97.08C115.825 98.382 114.943 98.928 113.991 98.928H113.627V99.74H113.907C114.887 99.74 115.559 100.412 115.559 101.574C115.559 102.96 114.341 103.744 112.815 103.744C111.527 103.744 110.267 103.086 110.267 101.98C110.267 101.938 110.267 101.868 110.281 101.84L109.371 101.728C109.357 101.826 109.343 101.924 109.343 102.036C109.343 103.548 110.939 104.528 112.815 104.528ZM109.693 99.656C108.447 99.656 107.705 98.634 107.705 97.332C107.705 96.03 108.447 94.994 109.693 94.994C110.953 94.994 111.709 96.03 111.709 97.332C111.709 98.634 110.967 99.656 109.693 99.656ZM120.406 100.804C119.832 99.978 119.3 98.942 119.3 97.416C119.3 95.932 119.986 95.064 121.064 95.064C122.002 95.064 122.646 95.736 122.646 97.234V99.236H123.612V97.234C123.612 95.554 124.41 95.064 125.166 95.064C126.188 95.064 126.958 95.736 126.958 97.416C126.958 98.928 126.44 99.964 125.838 100.804L126.65 101.154C127.28 100.398 127.938 99.11 127.938 97.43C127.938 95.26 126.734 94.252 125.25 94.252C124.116 94.252 123.374 95.008 123.15 95.848H123.122C122.912 95.134 122.268 94.252 120.98 94.252C119.496 94.252 118.32 95.274 118.32 97.43C118.32 99.124 118.978 100.398 119.608 101.154L120.406 100.804ZM131.522 100.804C130.948 99.978 130.416 98.942 130.416 97.36C130.416 95.806 131.186 95.092 132.222 95.092C133.146 95.092 133.762 95.764 133.762 97.234V99.236H134.728V97.234C134.728 95.582 135.498 95.092 136.254 95.092C137.346 95.092 138.074 95.82 138.074 97.416C138.074 98.928 137.556 99.964 136.954 100.804L137.766 101.154C138.396 100.398 139.054 99.11 139.054 97.43C139.054 95.316 137.906 94.28 136.394 94.28C135.246 94.28 134.49 95.036 134.266 95.876H134.238C134.028 95.148 133.44 94.28 132.236 94.28C131.41 94.28 130.64 94.63 130.22 95.638H130.178C130.458 94.084 131.284 93.02 133.118 92.46L133.762 92.25C135.008 91.872 135.988 91.382 136.254 90.514L135.414 90.248C135.092 90.864 134.406 91.186 133.482 91.494L132.838 91.704C130.248 92.614 129.436 94.182 129.436 96.814C129.436 98.774 129.898 100.146 130.724 101.154L131.522 100.804ZM144.065 101.182C146.123 101.182 147.453 99.712 147.453 97.542V93.608C147.453 91.55 146.109 90.234 144.149 90.234C142.105 90.234 140.887 91.564 140.887 92.992C140.887 93.23 140.915 93.426 140.971 93.58L141.895 93.398C141.867 93.286 141.853 93.146 141.853 93.02C141.853 91.816 142.819 91.032 144.149 91.032C145.633 91.032 146.501 92.082 146.501 93.622V95.708H146.459C145.983 94.798 144.947 94.28 143.911 94.28C141.965 94.28 140.621 95.764 140.621 97.738C140.621 99.572 141.951 101.182 144.065 101.182ZM144.065 100.384C142.511 100.384 141.615 99.166 141.615 97.738C141.615 96.296 142.511 95.092 144.065 95.092C145.535 95.092 146.557 96.268 146.557 97.738C146.557 99.18 145.563 100.384 144.065 100.384ZM152.158 101.182C154.16 101.182 155.182 99.852 155.182 98.508C155.182 96.128 152.746 95.988 152.704 94.434H151.724C151.724 96.562 154.216 96.52 154.216 98.508C154.216 99.516 153.474 100.37 152.158 100.37C150.842 100.37 150.1 99.516 150.1 98.522C150.1 98.2 150.142 97.948 150.24 97.71L149.372 97.402C149.232 97.682 149.12 98.088 149.12 98.536C149.12 99.824 150.128 101.182 152.158 101.182ZM161.009 104.43C163.137 104.43 164.565 103.282 164.565 101.546C164.565 100.076 163.767 99.208 162.675 98.97V98.942C163.599 98.788 164.243 98.172 164.243 97.304C164.243 95.638 162.549 95.484 162.451 94.434H161.485C161.485 95.904 163.291 95.89 163.291 97.304C163.291 98.172 162.493 98.536 161.569 98.536H160.477V99.362H161.387C162.507 99.362 163.599 99.964 163.599 101.476C163.599 102.848 162.549 103.632 161.037 103.632C159.259 103.632 157.663 102.218 157.663 99.194C157.663 97.01 158.377 95.554 159.105 94.616L158.349 94.28C157.565 95.176 156.697 96.842 156.697 99.194C156.697 102.54 158.503 104.43 161.009 104.43ZM168.149 100.804C167.575 100.02 167.029 99.096 167.029 97.71C167.029 96.296 167.729 95.064 169.255 95.064C170.781 95.064 171.481 96.296 171.481 97.71C171.481 99.096 170.949 100.02 170.361 100.804L171.173 101.154C171.817 100.398 172.447 99.25 172.447 97.696C172.447 95.484 171.117 94.252 169.255 94.252C167.407 94.252 166.063 95.484 166.063 97.696C166.063 99.25 166.693 100.398 167.337 101.154L168.149 100.804ZM176.051 100.804C175.477 100.02 174.931 99.096 174.931 97.71C174.931 96.296 175.631 95.064 177.157 95.064C178.683 95.064 179.383 96.296 179.383 97.71C179.383 99.096 178.851 100.02 178.263 100.804L179.075 101.154C179.719 100.398 180.349 99.25 180.349 97.696C180.349 95.484 179.019 94.252 177.157 94.252C175.309 94.252 173.965 95.484 173.965 97.696C173.965 99.25 174.595 100.398 175.239 101.154L176.051 100.804ZM185.619 101.182C187.719 101.182 189.007 99.754 189.007 98.242C189.007 96.254 187.439 95.946 187.425 94.434H186.459C186.459 96.324 188.027 96.52 188.027 98.214C188.027 99.488 187.075 100.37 185.633 100.37C184.247 100.37 183.211 99.404 183.211 97.556V90.416H182.245V97.542C182.245 99.838 183.659 101.182 185.619 101.182ZM200 101.154C200.63 100.398 201.274 99.11 201.274 97.43C201.274 95.26 200.182 94.252 198.684 94.252C197.48 94.252 196.668 95.064 196.444 96.058H196.416C196.024 95.008 195.044 94.252 193.658 94.252C191.824 94.252 190.522 95.666 190.522 97.724C190.522 99.754 191.796 101.182 193.728 101.182C195.66 101.182 196.948 99.782 196.948 97.724C196.948 97.514 196.934 97.36 196.934 97.178C196.934 95.638 197.844 95.064 198.6 95.064C199.65 95.064 200.308 95.862 200.308 97.416C200.308 98.928 199.79 99.964 199.188 100.804L200 101.154ZM193.728 100.37C192.314 100.37 191.502 99.236 191.502 97.724C191.502 96.184 192.314 95.05 193.728 95.05C195.142 95.05 195.982 96.184 195.982 97.724C195.982 99.236 195.156 100.37 193.728 100.37ZM206.075 104.528C208.021 104.528 209.393 103.366 209.393 101.644C209.393 100.132 208.567 99.278 207.489 99.012V98.984C208.427 98.76 209.155 98.074 209.155 96.884C209.155 95.414 207.937 94.252 206.117 94.252C204.241 94.252 203.037 95.47 203.037 96.884C203.037 97.136 203.079 97.374 203.149 97.57L204.073 97.388C204.031 97.248 204.003 97.066 204.003 96.898C204.003 95.806 204.871 95.05 206.117 95.05C207.419 95.05 208.203 95.862 208.203 96.912C208.203 98.158 207.195 98.606 206.257 98.606H205.613V99.418H206.257C207.307 99.418 208.427 100.02 208.427 101.574C208.427 102.904 207.461 103.73 206.089 103.73C204.661 103.73 203.751 102.75 203.751 101.602C203.751 101.294 203.793 101.014 203.905 100.734L203.037 100.426C202.869 100.776 202.785 101.14 202.785 101.616C202.785 103.156 203.919 104.528 206.075 104.528ZM212.979 100.804C212.405 100.02 211.859 99.096 211.859 97.71C211.859 96.296 212.559 95.064 214.085 95.064C215.611 95.064 216.311 96.296 216.311 97.71C216.311 99.096 215.779 100.02 215.191 100.804L216.003 101.154C216.647 100.398 217.277 99.25 217.277 97.696C217.277 95.484 215.947 94.252 214.085 94.252C212.237 94.252 210.893 95.484 210.893 97.696C210.893 99.25 211.523 100.398 212.167 101.154L212.979 100.804ZM222.547 101.182C224.647 101.182 225.935 99.754 225.935 98.242C225.935 96.254 224.367 95.946 224.353 94.434H223.387C223.387 96.324 224.955 96.52 224.955 98.214C224.955 99.488 224.003 100.37 222.561 100.37C221.175 100.37 220.139 99.404 220.139 97.556V90.416H219.173V97.542C219.173 99.838 220.587 101.182 222.547 101.182Z" fill="#383838"/>
</svg>
